<?xml version="1.0" encoding="utf-8"?>
<!-- Generator: Adobe Illustrator 21.0.0, SVG Export Plug-In . SVG Version: 6.00 Build 0)  -->
<svg version="1.1" id="Layer_1" xmlns="http://www.w3.org/2000/svg" xmlns:xlink="http://www.w3.org/1999/xlink" x="0px" y="0px"
	 viewBox="0 0 512 512" style="enable-background:new 0 0 512 512;" xml:space="preserve">
<style type="text/css">
	.st0{fill:#FF0A55;}
</style>
<g>
	<g>
		<path class="st0" d="M453.3,322.9v-62.7h16.8v-16.8h-16.8H445h-83.8h-8.4H336v16.8h16.8v62.7c-13.5,7-25.1,16.7-34.4,28.2
			c-1.8-23.6-6.4-46.9-13.9-69.5c-1.3-4-2-8.1-2-12.3c0-5,0.9-9.8,2.8-14.4l0.9-2.3c8.7-21.7,13-44.5,13-67.8v-8.4H269V133
			c6-2.1,10.9-6.4,13.8-12c2.4,0.8,4.9,1.2,7.5,1.2c6.4,0,12.9-2.5,17.8-7.3c6.8-6.8,8.8-16.6,6.1-25.2c8-4.2,13.5-12.5,13.5-22.2
			s-5.5-18-13.5-22.2c2.7-8.6,0.7-18.4-6.1-25.2c-6.8-6.8-16.6-8.8-25.2-6.1c-4.2-8-12.5-13.5-22.2-13.5c-9.7,0-17.9,5.5-22.2,13.5
			c-8.6-2.7-18.4-0.7-25.2,6.1c-6.8,6.8-8.8,16.6-6.1,25.2c-8,4.2-13.5,12.5-13.5,22.2s5.5,17.9,13.5,22.2
			c-2.7,8.6-0.7,18.4,6.1,25.2c4.9,4.9,11.3,7.3,17.8,7.3c2.5,0,5-0.5,7.5-1.2c2.9,5.6,7.8,9.9,13.8,12v43.4H202v8.4
			c0,23.3,4.4,46.1,13,67.8l0.9,2.3c1.8,4.6,2.8,9.5,2.8,14.4c0,4.2-0.7,8.3-2,12.3c-6,18.1-10,36.8-12.4,55.7
			c-9.4-11.1-28.9-18.4-52.7-18.4c-33.4,0-58.7,14.4-58.7,33.5c0,8.4,4.9,15.9,13.1,21.6c-21.9,5.2-38.3,14.6-38.3,28.7
			c0,10.9,9.7,18.9,24.1,24.4c-23.9,6.9-40.9,18.4-40.9,34.3c0,8.7,5.1,16.2,13.7,22.2c-15.4-1-30.8-2.2-46.1-3.7l-17.1-1.7L0,494.8
			l17.1,1.7c0.2,0,0.3,0,0.5,0v15.1h16.8V498c39,3.4,78.3,5.2,117.3,5.2S230,501.4,269,498v13.6h16.8v-15.1c0.2,0,0.3,0,0.5,0
			l17.1-1.7l-1.7-16.7l-17.1,1.7c-15.3,1.5-30.7,2.7-46.1,3.7c8.6-6,13.7-13.5,13.7-22.2c0-15.9-17-27.4-40.9-34.3
			c14.4-5.5,24.1-13.5,24.1-24.4c0-8.9-6.5-15.9-16.8-21.1v-8.9c0-29.2,4.7-58,13.9-85.7c1.9-5.7,2.8-11.6,2.8-17.6
			c0-7.1-1.3-14.1-4-20.7l-0.9-2.3c-6.8-17.1-10.7-34.9-11.6-53.2h83.4c-0.9,18.3-4.8,36.1-11.6,53.2l-0.9,2.3
			c-2.6,6.6-4,13.6-4,20.7c0,6,1,11.9,2.8,17.6c9.2,27.7,13.9,56.5,13.9,85.7v4.9h0.1c-5.5,13.1-8.5,27.3-8.5,41.9
			c0,36.6,18.2,70.5,48.8,90.8l2.1,1.4h116.1l2.1-1.4c30.5-20.3,48.8-54.2,48.8-90.8C512,378.9,489.1,341.5,453.3,322.9z M296.2,103
			c-2.9,2.8-7.2,3.1-10.4,1V92.6h11.4C299.2,95.8,299,100.2,296.2,103z M285.7,30.9c3.3-2.1,7.6-1.9,10.4,1c2.8,2.8,3.1,7.2,1,10.4
			h-11.4L285.7,30.9L285.7,30.9z M284.2,59.1h1.5h16.8c4.6,0,8.4,3.8,8.4,8.4c0,4.6-3.8,8.4-8.4,8.4h-16.8h-1.5
			c0.9-2.6,1.5-5.4,1.5-8.4C285.7,64.5,285.1,61.7,284.2,59.1z M225.1,31.9c2.8-2.9,7.2-3.1,10.4-1v11.4h-11.4
			C222,39.1,222.2,34.8,225.1,31.9z M235.5,104c-3.3,2.1-7.6,1.9-10.4-0.9c-2.8-2.8-3.1-7.2-1-10.4h11.4V104z M237,75.8h-1.5h-16.8
			c-4.6,0-8.4-3.8-8.4-8.4s3.8-8.4,8.4-8.4h16.8h1.5c-0.9,2.6-1.5,5.4-1.5,8.4S236.1,73.2,237,75.8z M202.1,370
			c0,0.9-0.1,1.7-0.1,2.6v2.6c-1.5-0.4-3.1-0.8-4.8-1.2C199,372.7,200.6,371.4,202.1,370z M151.7,335.6c25.6,0,41.9,9.9,41.9,16.8
			s-16.3,16.8-41.9,16.8s-41.9-9.9-41.9-16.8C109.8,345.5,126.1,335.6,151.7,335.6z M235.5,461.3c0,9.7-31.7,25.1-79.9,25.1
			c-2.6,0-5.2,0-7.8,0c-48.1,0-79.9-15.4-79.9-25.1c0-10,33.4-25.1,83.8-25.1S235.5,451.3,235.5,461.3z M151.7,419.4
			c-44,0-67-12.5-67-16.8s23-16.8,67-16.8s67,12.5,67,16.8S195.7,419.4,151.7,419.4z M252.2,42.3V25.6c0-4.6,3.8-8.4,8.4-8.4
			c4.6,0,8.4,3.8,8.4,8.4v16.8v1.5c-2.6-0.9-5.4-1.5-8.4-1.5c-3,0-5.7,0.6-8.4,1.5V42.3z M260.6,59.1c4.6,0,8.4,3.8,8.4,8.4
			s-3.8,8.4-8.4,8.4c-4.6,0-8.4-3.8-8.4-8.4S256,59.1,260.6,59.1z M260.6,117.7c-4.6,0-8.4-3.8-8.4-8.4V92.6v-1.5
			c2.6,0.9,5.4,1.5,8.4,1.5c3,0,5.7-0.6,8.4-1.5v1.5v16.8C269,114,265.2,117.7,260.6,117.7z M456,494.8H350.1
			c-24.6-17.3-39.2-45.3-39.2-75.4c0-5.7,0.6-11.3,1.6-16.8h140.8v-16.8h-136c8.6-21.8,25.3-40.1,47.4-50.2l4.9-2.2v-73.3h67v73.3
			l4.9,2.2c22,10.1,38.8,28.4,47.4,50.2h-18.7v16.8h23.5c1,5.5,1.6,11.1,1.6,16.8C495.2,449.5,480.6,477.5,456,494.8z"/>
	</g>
</g>
</svg>
