<?xml version="1.0" encoding="utf-8"?>
<!-- Generator: Adobe Illustrator 21.0.0, SVG Export Plug-In . SVG Version: 6.00 Build 0)  -->
<svg version="1.1" id="Capa_1" xmlns="http://www.w3.org/2000/svg" xmlns:xlink="http://www.w3.org/1999/xlink" x="0px" y="0px"
	 viewBox="0 0 512 512" style="enable-background:new 0 0 512 512;" xml:space="preserve">
<style type="text/css">
	.st0{fill:#FF0A55;stroke:#FF0A55;stroke-width:3;stroke-miterlimit:10;}
</style>
<g>
	<g>
		<g>
			<path class="st0" d="M174,86.7c4-1.2,6.2-5.4,5-9.3c-4.7-15.8-0.5-32.5,11-43.6c16.8-16.2,43.9-15.9,60.5,0.6
				c2.9,2.9,7.7,2.9,10.6,0c16.8-16.8,44.2-16.8,61.1,0c8.2,8.2,12.6,19,12.6,30.5s-4.5,22.4-12.6,30.5l-55.3,55.3
				c-6.1,6.1-16.1,6.1-22.2,0l-48.1-48.1c-2.9-2.9-7.7-2.9-10.6,0c-2.9,2.9-2.9,7.7,0,10.6l48.1,48.1c6,6,13.8,9,21.7,9
				c7.9,0,15.7-3,21.7-9l55.3-55.3c11-11,17-25.6,17-41.1s-6.1-30.1-17-41.1c-11-11-25.6-17-41.1-17C278.5,6.7,266,11,255.8,19
				c-10-7.9-22.3-12.2-35.3-12.3c-0.2,0-0.4,0-0.5,0c-15.1,0-29.4,5.8-40.3,16.2c-15.6,15-21.3,37.5-15,58.7
				C165.8,85.6,170,87.9,174,86.7z"/>
			<path class="st0" d="M510.3,436.3c-4.3-9.3-15.5-13.4-24.8-9l-25.8,12l-38.9-83.4c19.3-18.5,26.3-47.5,16-73.6l-2.5-6.2
				c-1.5-3.9-5.9-5.7-9.7-4.2c-3.8,1.5-5.7,5.9-4.2,9.7l2.5,6.2c10.3,25.8-1.4,55.2-26.6,66.9c-25.2,11.7-55.2,1.8-68.4-22.7
				l-37.6-69.8c15.3-8.8,31.8-15.9,45.2-19.4c22.9-6,41.5-12.3,59.8-24.1l13.1,33c1.5,3.9,5.9,5.7,9.7,4.2c3.8-1.5,5.7-5.9,4.2-9.7
				l-35.6-89.4c-1.8-4.6-5.5-8.2-10.1-10.1c-4.6-1.8-9.8-1.7-14.2,0.4l-103.7,48.4c-1,0.5-2,1.1-2.9,1.7c-0.9-0.6-1.9-1.2-2.9-1.7
				l-103.7-48.4c-4.5-2.1-9.6-2.2-14.2-0.4c-4.6,1.8-8.2,5.5-10.1,10.1L75.3,282.3c-10.4,26.1-3.3,55.1,16,73.6l-13.9,29.9
				c-1.8,3.8-0.1,8.2,3.6,10c1,0.5,2.1,0.7,3.2,0.7c2.8,0,5.5-1.6,6.8-4.3l12.6-26.9c1.9,1.1,3.9,2.2,6,3.2s4.2,1.8,6.3,2.5
				l-37.5,80.5l-12.3-5.7l10.3-22c1.8-3.8,0.1-8.2-3.6-10c-3.8-1.8-8.2-0.1-10,3.6l-10.3,22l-25.8-12c-9.3-4.3-20.5-0.3-24.8,9
				s-0.3,20.5,9,24.8l91,42.4c2.5,1.2,5.2,1.8,7.9,1.8c2.2,0,4.3-0.4,6.4-1.1c4.7-1.7,8.4-5.1,10.5-9.6c2.1-4.5,2.3-9.6,0.6-14.3
				c-1.7-4.7-5.1-8.4-9.7-10.5l-25.8-12l38.9-83.4c2.4,0.3,4.8,0.4,7.2,0.4c24.1,0,47.4-13,59.5-35.5L256,230.3l58.6,108.9
				c12.1,22.5,35.4,35.5,59.5,35.5c2.4,0,4.8-0.1,7.2-0.4l38.9,83.4l-25.7,12c-4.5,2.1-7.9,5.8-9.7,10.5c-1.7,4.7-1.5,9.8,0.6,14.3
				s5.8,7.9,10.5,9.7c2.1,0.8,4.2,1.1,6.4,1.1c2.7,0,5.4-0.6,7.9-1.8l91-42.4C510.6,456.8,514.6,445.7,510.3,436.3z M111.2,483.3
				c1.8,0.9,2.6,3,1.8,4.9c-0.6,1.2-1.5,1.7-2.1,1.9c-0.5,0.2-1.6,0.4-2.8-0.1l-91-42.4c-1.8-0.9-2.6-3-1.8-4.9
				c0.6-1.3,1.9-2.1,3.3-2.1c0.5,0,1,0.1,1.5,0.3L111.2,483.3z M184.1,332.1c-13.2,24.5-43.2,34.4-68.4,22.7
				c-25.2-11.7-36.8-41.1-26.6-66.9l29.3-73.6c16.6,6,32.7,14.1,44,22.2c19.3,13.7,36.1,23.9,56.9,30.4L184.1,332.1z M248.1,213.3
				l-21.5,39.9c-20.3-5.9-36-15.3-55.5-29.1c-12.2-8.7-29.4-17.4-47.1-23.9l15-37.8c0.4-1,1.2-1.5,1.7-1.7c0.2-0.1,0.6-0.2,1.1-0.2
				c0.4,0,0.8,0.1,1.2,0.3l103.7,48.4c1,0.5,1.4,1.3,1.6,1.7C248.5,211.4,248.7,212.3,248.1,213.3z M263.9,213.3
				c-0.5-1-0.4-1.9-0.2-2.3c0.1-0.5,0.6-1.3,1.6-1.7L369,160.9c1-0.5,1.9-0.2,2.3-0.1c0.4,0.2,1.2,0.6,1.7,1.7l16.8,42.2
				c-17.5,11.8-34.9,17.8-58,23.8c-14.5,3.8-32.2,11.4-48.6,20.7L263.9,213.3z M396.3,370.9c2.1-0.7,4.2-1.6,6.3-2.5
				c2.1-1,4.1-2,6-3.2l37.5,80.5l-12.3,5.7L396.3,370.9z M494.9,447.5l-91,42.4c-1.2,0.6-2.3,0.3-2.8,0.1c-0.5-0.2-1.5-0.7-2.1-1.9
				c-0.6-1.2-0.3-2.3-0.1-2.8c0.2-0.5,0.7-1.5,1.9-2.1l91-42.4c0.5-0.2,1-0.3,1.5-0.3c1.4,0,2.7,0.8,3.3,2.1
				C497.5,444.5,496.7,446.7,494.9,447.5z"/>
		</g>
	</g>
</g>
</svg>
