<?xml version="1.0" encoding="utf-8"?>
<!-- Generator: Adobe Illustrator 21.0.0, SVG Export Plug-In . SVG Version: 6.00 Build 0)  -->
<svg version="1.1" id="Layer_1" xmlns="http://www.w3.org/2000/svg" xmlns:xlink="http://www.w3.org/1999/xlink" x="0px" y="0px"
	 viewBox="0 0 512 512" style="enable-background:new 0 0 512 512;" xml:space="preserve">
<style type="text/css">
	.st0{fill:#FF0A55;}
</style>
<g>
	<g>
		<path class="st0" d="M401.1,287.8c-23.5,0-42.7,19.1-42.7,42.7c0,23.5,19.1,42.7,42.7,42.7c23.5,0,42.7-19.1,42.7-42.7
			C443.7,307,424.6,287.8,401.1,287.8z M401.1,356.1c-14.1,0-25.6-11.5-25.6-25.6s11.5-25.6,25.6-25.6s25.6,11.5,25.6,25.6
			S415.2,356.1,401.1,356.1z"/>
	</g>
</g>
<g>
	<g>
		<path class="st0" d="M110.9,287.8c-23.5,0-42.7,19.1-42.7,42.7c0,23.5,19.1,42.7,42.7,42.7c23.5,0,42.7-19.1,42.7-42.7
			C153.6,307,134.5,287.8,110.9,287.8z M110.9,356.1c-14.1,0-25.6-11.5-25.6-25.6s11.5-25.6,25.6-25.6s25.6,11.5,25.6,25.6
			S125,356.1,110.9,356.1z"/>
	</g>
</g>
<g>
	<g>
		<path class="st0" d="M503.5,287.8v-51.2c0-3.7-2.3-6.9-5.8-8.1l-48.2-16.1c-18.1-30.7-43.1-59.9-98.1-69.6c-0.1,0-0.2,0-0.3-0.1
			c-101.7-14.1-178.1,8.9-227.1,68.2C67.2,211.9,8.5,229.8,8.5,262.2v25.6c-4.7,0-8.5,3.8-8.5,8.5v34.1c0,4.7,3.8,8.5,8.5,8.5h34.1
			c4.7,0,8.5-3.8,8.5-8.5c0-32.9,26.8-59.7,59.7-59.7s59.7,26.8,59.7,59.7c0,4.7,3.8,8.5,8.5,8.5h153.6c4.7,0,8.5-3.8,8.5-8.5
			c0-32.9,26.8-59.7,59.7-59.7c32.9,0,59.7,26.8,59.7,59.7c0,4.7,3.8,8.5,8.5,8.5h34.1c4.7,0,8.5-3.8,8.5-8.5v-34.1
			C512,291.7,508.2,287.8,503.5,287.8z M393,175.7c14.8,9.1,25.9,21.1,35.4,35.4h-35.8L393,175.7z M290.1,155.9
			c18.3-0.2,37.7,1,58.4,3.8c10.3,1.8,19.3,4.4,27.4,7.6l-0.4,43.7h-85.4V155.9z M273.1,156.6V211H147
			C178.6,178.4,220.3,160.4,273.1,156.6z M494.9,322h-17.5c-4.3-38.3-36.9-68.3-76.3-68.3S329,283.6,324.7,322H187.3
			c-4.3-38.3-36.9-68.3-76.3-68.3S38.9,283.6,34.6,322H17.1v-17.1c4.7,0,8.5-3.8,8.5-8.5v-25.6h8.5c4.7,0,8.5-3.8,8.5-8.5
			s-3.8-8.5-8.5-8.5h-4.4c11.5-12.5,46.9-25.6,98.3-25.6h314.3l44.1,14.7v10.9h-8.5c-4.7,0-8.5,3.8-8.5,8.5s3.8,8.5,8.5,8.5h8.5
			v25.6c0,4.7,3.8,8.5,8.5,8.5V322z"/>
	</g>
</g>
</svg>
