<?xml version="1.0" encoding="utf-8"?>
<!-- Generator: Adobe Illustrator 21.0.0, SVG Export Plug-In . SVG Version: 6.00 Build 0)  -->
<svg version="1.1" id="Capa_1" xmlns="http://www.w3.org/2000/svg" xmlns:xlink="http://www.w3.org/1999/xlink" x="0px" y="0px"
	 viewBox="0 0 512 512" style="enable-background:new 0 0 512 512;" xml:space="preserve">
<style type="text/css">
	.st0{fill:#FF0A55;stroke:#FF0A55;stroke-width:4;stroke-miterlimit:10;}
</style>
<g>
	<g>
		<path class="st0" d="M490.4,219c-4.2-12-17.7-45.5-45.8-79.2c-20.2-24.3-43.7-43.7-69.9-57.7c-21.2-11.3-44.2-18.9-68.7-22.9
			c-2.1-21.1-19.8-37.5-41.3-37.5c-21.6,0-39.3,16.4-41.3,37.5c-22.6,3.7-43.9,10.5-63.8,20.4c-25.6,12.8-48.8,30.7-68.9,53.4
			c-6.3,7.1,4.7,16.9,11,9.8c35.1-39.6,78.8-63,129.8-69.9h0.1c46-6.3,94.7,0.3,135.9,22.1c24.5,13,46.5,31.1,65.4,53.8
			c22.9,27.6,35.8,55.4,41.4,69.6H55c4.5-11.3,13.6-31.4,28.7-53c5.4-7.8-6.6-16.3-12.1-8.5c-19.3,27.5-29.1,52.3-32.7,62.1
			c-10,2.5-17.6,11.6-17.6,22.4c0,12.8,10.3,23.1,23.1,23.1H156l-64.6,82.9h-80c-4,0-7.4,3.3-7.4,7.4c0,0,0,127.6,0,128.1
			c0,2.2,1,4.1,2.5,5.5c1.3,1.2,3.1,1.9,4.9,1.9c0.3,0,0.6,0,0.9-0.1l83.7-9.9c3.7-0.4,6.5-3.5,6.5-7.3v-27.5l175.3-43.3
			c5.4-1,10.3-3.5,14.2-7.4c0.1-0.1,0.2-0.2,0.3-0.3l89.4-98.6c8.5-8.6,10.1-21.4,4.9-31.5h98.3c12.8,0,23.1-10.3,23.1-23.1
			C508,230.6,500.5,221.4,490.4,219z M288.4,56.9c-10.1-0.9-20.4-1.3-30.5-1c-5.3,0.1-10.6,0.5-16,0.9c-1.1,0.1-2.2,0.2-3.2,0.3
			c2.8-11.8,13.4-20.7,26.1-20.7c12.7,0,23.3,8.9,26.1,20.7C290,57,289.2,56.9,288.4,56.9z M87.7,466.6l-68.9,8.2V362.3h68.9V466.6z
			 M371.1,285.7c-0.1,0.1-0.2,0.2-0.3,0.3l-89.4,98.5c-1.8,1.8-4,2.9-6.5,3.2c-0.2,0-0.3,0.1-0.5,0.1l-172,42.6v-73
			c0,0,69.5-89.5,69.6-89.6c4-5.2,13.1-3.9,17.2,0.2c4.3,4.2,4.9,10.9,1.5,15.8c-0.7,1-38.6,59.3-38.7,59.4
			c-3.1,4.8,0.5,11.4,6.2,11.4h104.9c2,0,3.8-0.8,5.2-2.2c0,0,85-84.4,85.1-84.5c4.8-4.7,12.8-4.7,17.5,0.1
			C376,273.1,375.9,280.9,371.1,285.7z M204.7,264.6h42.9l-75.5,74.9c0,0,30-46,30.7-47C208.8,284.1,209.2,273.3,204.7,264.6z
			 M215.9,340h-23.3l72.4-71.9c2.4-2.4,5.4-3.6,8.8-3.6c4.7,0,9.2,2.8,11.1,7L215.9,340z M309.3,268.2c2.4-2.4,5.4-3.6,8.8-3.6
			c4.7,0,9.2,2.8,11.1,7l-69,68.4h-23.3L309.3,268.2z M484.9,249.8H44.5c-4.6,0-8.4-3.7-8.4-8.4s3.7-8.4,8.4-8.4h440.4
			c4.6,0,8.4,3.7,8.4,8.4S489.5,249.8,484.9,249.8z"/>
	</g>
</g>
</svg>
