<?xml version="1.0" encoding="utf-8"?>
<!-- Generator: Adobe Illustrator 21.0.0, SVG Export Plug-In . SVG Version: 6.00 Build 0)  -->
<svg version="1.1" id="Capa_1" xmlns="http://www.w3.org/2000/svg" xmlns:xlink="http://www.w3.org/1999/xlink" x="0px" y="0px"
	 viewBox="0 0 512 512" style="enable-background:new 0 0 512 512;" xml:space="preserve">
<style type="text/css">
	.st0{fill:#FF0A55;}
</style>
<g>
	<g>
		<path class="st0" d="M478.6,120.5H33.4C15,120.5,0,135.5,0,153.9v66.8c0,18.4,15,33.4,33.4,33.4h445.2c18.4,0,33.4-15,33.4-33.4
			v-66.8C512,135.5,497,120.5,478.6,120.5z M489.7,220.7c0,6.1-5,11.1-11.1,11.1H33.4c-6.1,0-11.1-5-11.1-11.1v-66.8
			c0-6.1,5-11.1,11.1-11.1h445.2c6.1,0,11.1,5,11.1,11.1L489.7,220.7L489.7,220.7z"/>
	</g>
</g>
<g>
	<g>
		<path class="st0" d="M478.6,231.8H33.4c-6.1,0-11.1,5-11.1,11.1v200.3c0,30.7,25,55.7,55.7,55.7h356.2c30.7,0,55.7-25,55.7-55.7
			V243C489.7,236.8,484.8,231.8,478.6,231.8z M467.5,443.3c0,18.4-15,33.4-33.4,33.4H77.9c-18.4,0-33.4-15-33.4-33.4V254.1h423
			V443.3z"/>
	</g>
</g>
<g>
	<g>
		<path class="st0" d="M179.6,14.3c-13-3.9-27.5,1.2-35.8,12.2c-6.3,8.4-8.2,18.9-5.2,28.8c15.3,51.5,63.6,87.5,117.4,87.5
			c6.1,0,11.1-5,11.1-11.1C267.1,77.9,231.2,29.6,179.6,14.3z M160,49c-1.2-4.2,0.6-7.5,1.8-9.1c2.2-2.9,5.4-4.6,8.7-4.6
			c1,0,1.9,0.2,2.8,0.4c38.3,11.4,66.1,45.1,70.9,84.2C205,115.1,171.4,87.3,160,49z"/>
	</g>
</g>
<g>
	<g>
		<path class="st0" d="M368.1,26.6c-8.2-11.1-22.8-16.1-35.8-12.2c-51.5,15.3-87.5,63.6-87.5,117.4c0,6.1,5,11.1,11.1,11.1
			c53.8,0,102-36,117.4-87.5C376.3,45.5,374.4,35,368.1,26.6z M352,49c-11.4,38.3-45.1,66.1-84.2,70.9c4.7-39.1,32.5-72.8,70.9-84.2
			c1-0.3,1.9-0.4,2.8-0.4c3.3,0,6.6,1.7,8.7,4.6C351.5,41.5,353.3,44.8,352,49z"/>
	</g>
</g>
<g>
	<g>
		<path class="st0" d="M260.3,121.4c-4.2-1.8-8.9-0.8-12.1,2.4l-66.8,66.8c-4.3,4.3-4.3,11.4,0,15.7c4.3,4.3,11.4,4.3,15.7,0
			l47.8-47.8v329.3c0,6.1,5,11.1,11.1,11.1c6.1,0,11.1-5,11.1-11.1V131.7C267.1,127.2,264.4,123.1,260.3,121.4z"/>
	</g>
</g>
<g>
	<g>
		<path class="st0" d="M330.6,190.6l-66.8-66.8c-4.3-4.3-11.4-4.3-15.7,0s-4.3,11.4,0,15.7l66.8,66.8c2.2,2.2,5,3.3,7.9,3.3
			c2.8,0,5.7-1.1,7.9-3.3C335,202,335,194.9,330.6,190.6z"/>
	</g>
</g>
</svg>
