<?xml version="1.0" encoding="utf-8"?>
<!-- Generator: Adobe Illustrator 21.0.0, SVG Export Plug-In . SVG Version: 6.00 Build 0)  -->
<svg version="1.1" id="Calque_1" xmlns="http://www.w3.org/2000/svg" xmlns:xlink="http://www.w3.org/1999/xlink" x="0px" y="0px"
	 viewBox="0 0 87 27" style="enable-background:new 0 0 87 27;" xml:space="preserve">
<style type="text/css">
	.st0{fill:none;stroke:#2D2D2D;stroke-width:1.4806;stroke-miterlimit:10;}
</style>
<path class="st0" d="M3.9,3.1v6.7h6.3c0,0,2.8,0,2.8-3.3c0,0,0-3.3-3.3-3.3H3.9z"/>
<path class="st0" d="M3.9,15.7H13c0,0,2.6-0.4,2.6,3.5c0,0-0.2,3-2.6,3H3.9V15.7z"/>
<circle class="st0" cx="30.4" cy="12.8" r="10"/>
<polyline class="st0" points="45.6,22.2 45.6,9.8 55,17.7 64.1,9.8 64.1,22.2 "/>
<polyline class="st0" points="46.5,2.8 54.8,9.8 62.6,3.1 "/>
<polygon class="st0" points="71.3,12.8 75,2.8 79.1,12.8 "/>
<polyline class="st0" points="67.8,22.2 69.4,17.9 81.1,17.9 82.6,22.2 "/>
</svg>
